# xmcd
#
# Track frame offsets:
#	150
#	11890
#	29025
#	42075
#	54752
#	65585
#	80772
#	95462
#	109205
#	122025
#	140115
#	153355
#
# Disc length: 2165 seconds
#
# Revision: 1
# Processed by: cddbd v1.5.2PL0 Copyright (c) Steve Scherf et al.
# Submitted via: audiograbber 1.83.01
#
DISCID=a608730c
DTITLE=Arizona Country Band - Cowboys Aus Vorarlberg
DYEAR=1992
DGENRE=
TTITLE0=Arizona Country Band - Cowboys Aus Vorarlberg
TTITLE1=Arizona Country Band - Grand Ole Opry
TTITLE2=Arizona Country Band - Mein Truck Und Ich
TTITLE3=Arizona Country Band - Wenn Cowboys Abends Traeumen
TTITLE4=Arizona Country Band - Hobby Fuers Leben
TTITLE5=Arizona Country Band - Macht Euch Keine Sorgen
TTITLE6=Arizona Country Band - Hochzeit Auf Jamaica
TTITLE7=Arizona Country Band - Trucker Lady
TTITLE8=Arizona Country Band - Frau Fuers Leben
TTITLE9=Arizona Country Band - John Wayne
TTITLE10=Arizona Country Band - Lonesome Cowboy
TTITLE11=Arizona Country Band - Old Rattler
EXTD=
EXTT0=
EXTT1=
EXTT2=
EXTT3=
EXTT4=
EXTT5=
EXTT6=
EXTT7=
EXTT8=
EXTT9=
EXTT10=
EXTT11=
PLAYORDER=
